<mxfile host="www.draw.io" modified="2024-05-21T07:20:31.343Z" agent="Mozilla/5.0 (Windows NT 10.0; Win64; x64) AppleWebKit/537.36 (KHTML, like Gecko) Chrome/123.0.0.0 Safari/537.36 OPR/109.0.0.0" etag="NIS3ho9qFSxH3vol55nK" version="24.4.4" type="device">
  <diagram name="Halaman-1" id="exEGFyMjATzAHH6GzzKQ">
    <mxGraphModel dx="1912" dy="1070" grid="1" gridSize="10" guides="1" tooltips="1" connect="1" arrows="1" fold="1" page="1" pageScale="1" pageWidth="827" pageHeight="1169" math="0" shadow="0">
      <root>
        <mxCell id="0" />
        <mxCell id="1" parent="0" />
        <mxCell id="u8hdXsH2bOox4BELGcvJ-1" value="&lt;font style=&quot;font-size: 20px;&quot;&gt;Pre-Processing&lt;/font&gt;" style="shape=umlFrame;whiteSpace=wrap;html=1;pointerEvents=0;recursiveResize=0;container=1;collapsible=0;width=230;height=30;" vertex="1" parent="1">
          <mxGeometry x="70" y="80" width="1000" height="180" as="geometry" />
        </mxCell>
        <mxCell id="u8hdXsH2bOox4BELGcvJ-6" style="edgeStyle=orthogonalEdgeStyle;rounded=0;orthogonalLoop=1;jettySize=auto;html=1;entryX=0;entryY=0.5;entryDx=0;entryDy=0;" edge="1" parent="u8hdXsH2bOox4BELGcvJ-1" source="u8hdXsH2bOox4BELGcvJ-2" target="u8hdXsH2bOox4BELGcvJ-3">
          <mxGeometry relative="1" as="geometry" />
        </mxCell>
        <mxCell id="u8hdXsH2bOox4BELGcvJ-2" value="&lt;font style=&quot;font-size: 20px;&quot;&gt;Labeling&amp;nbsp;&lt;/font&gt;" style="rounded=0;whiteSpace=wrap;html=1;" vertex="1" parent="u8hdXsH2bOox4BELGcvJ-1">
          <mxGeometry x="20" y="60" width="170" height="60" as="geometry" />
        </mxCell>
        <mxCell id="u8hdXsH2bOox4BELGcvJ-7" style="edgeStyle=orthogonalEdgeStyle;rounded=0;orthogonalLoop=1;jettySize=auto;html=1;entryX=0;entryY=0.5;entryDx=0;entryDy=0;" edge="1" parent="u8hdXsH2bOox4BELGcvJ-1" source="u8hdXsH2bOox4BELGcvJ-3" target="u8hdXsH2bOox4BELGcvJ-4">
          <mxGeometry relative="1" as="geometry" />
        </mxCell>
        <mxCell id="u8hdXsH2bOox4BELGcvJ-3" value="&lt;font style=&quot;font-size: 20px;&quot;&gt;Resize&lt;/font&gt;" style="rounded=0;whiteSpace=wrap;html=1;" vertex="1" parent="u8hdXsH2bOox4BELGcvJ-1">
          <mxGeometry x="280" y="60" width="170" height="60" as="geometry" />
        </mxCell>
        <mxCell id="u8hdXsH2bOox4BELGcvJ-8" style="edgeStyle=orthogonalEdgeStyle;rounded=0;orthogonalLoop=1;jettySize=auto;html=1;entryX=0;entryY=0.5;entryDx=0;entryDy=0;" edge="1" parent="u8hdXsH2bOox4BELGcvJ-1" source="u8hdXsH2bOox4BELGcvJ-4" target="u8hdXsH2bOox4BELGcvJ-5">
          <mxGeometry relative="1" as="geometry" />
        </mxCell>
        <mxCell id="u8hdXsH2bOox4BELGcvJ-4" value="&lt;font style=&quot;font-size: 20px;&quot;&gt;Augmentasi&lt;/font&gt;" style="rounded=0;whiteSpace=wrap;html=1;" vertex="1" parent="u8hdXsH2bOox4BELGcvJ-1">
          <mxGeometry x="540" y="60" width="170" height="60" as="geometry" />
        </mxCell>
        <mxCell id="u8hdXsH2bOox4BELGcvJ-5" value="&lt;font style=&quot;font-size: 20px;&quot;&gt;Data Split&lt;/font&gt;" style="rounded=0;whiteSpace=wrap;html=1;" vertex="1" parent="u8hdXsH2bOox4BELGcvJ-1">
          <mxGeometry x="800" y="60" width="170" height="60" as="geometry" />
        </mxCell>
        <mxCell id="u8hdXsH2bOox4BELGcvJ-9" value="&lt;font style=&quot;font-size: 20px;&quot;&gt;Mengimport dataset ke Projek&lt;/font&gt;" style="rounded=0;whiteSpace=wrap;html=1;" vertex="1" parent="1">
          <mxGeometry x="1100" y="200" width="200" height="60" as="geometry" />
        </mxCell>
        <mxCell id="u8hdXsH2bOox4BELGcvJ-10" style="edgeStyle=orthogonalEdgeStyle;rounded=0;orthogonalLoop=1;jettySize=auto;html=1;entryX=0.5;entryY=0;entryDx=0;entryDy=0;" edge="1" parent="1" source="u8hdXsH2bOox4BELGcvJ-5" target="u8hdXsH2bOox4BELGcvJ-9">
          <mxGeometry relative="1" as="geometry" />
        </mxCell>
        <mxCell id="u8hdXsH2bOox4BELGcvJ-11" value="&lt;font style=&quot;font-size: 20px;&quot;&gt;Modelling&lt;/font&gt;" style="shape=umlFrame;whiteSpace=wrap;html=1;pointerEvents=0;recursiveResize=0;container=1;collapsible=0;width=230;height=30;" vertex="1" parent="1">
          <mxGeometry x="70" y="340" width="810" height="180" as="geometry" />
        </mxCell>
        <mxCell id="u8hdXsH2bOox4BELGcvJ-12" style="edgeStyle=orthogonalEdgeStyle;rounded=0;orthogonalLoop=1;jettySize=auto;html=1;entryX=0;entryY=0.5;entryDx=0;entryDy=0;" edge="1" parent="u8hdXsH2bOox4BELGcvJ-11" source="u8hdXsH2bOox4BELGcvJ-13" target="u8hdXsH2bOox4BELGcvJ-15">
          <mxGeometry relative="1" as="geometry" />
        </mxCell>
        <mxCell id="u8hdXsH2bOox4BELGcvJ-13" value="&lt;font style=&quot;font-size: 20px;&quot;&gt;Mendapatkan Depedency Yolov8&lt;/font&gt;" style="rounded=0;whiteSpace=wrap;html=1;" vertex="1" parent="u8hdXsH2bOox4BELGcvJ-11">
          <mxGeometry x="20" y="60" width="220" height="60" as="geometry" />
        </mxCell>
        <mxCell id="u8hdXsH2bOox4BELGcvJ-14" style="edgeStyle=orthogonalEdgeStyle;rounded=0;orthogonalLoop=1;jettySize=auto;html=1;entryX=0;entryY=0.5;entryDx=0;entryDy=0;" edge="1" parent="u8hdXsH2bOox4BELGcvJ-11" source="u8hdXsH2bOox4BELGcvJ-15" target="u8hdXsH2bOox4BELGcvJ-17">
          <mxGeometry relative="1" as="geometry" />
        </mxCell>
        <mxCell id="u8hdXsH2bOox4BELGcvJ-15" value="&lt;font style=&quot;font-size: 20px;&quot;&gt;Pelatihan Model&lt;/font&gt;" style="rounded=0;whiteSpace=wrap;html=1;" vertex="1" parent="u8hdXsH2bOox4BELGcvJ-11">
          <mxGeometry x="314" y="60" width="170" height="60" as="geometry" />
        </mxCell>
        <mxCell id="u8hdXsH2bOox4BELGcvJ-17" value="&lt;font style=&quot;font-size: 20px;&quot;&gt;Testing Model&lt;/font&gt;" style="rounded=0;whiteSpace=wrap;html=1;" vertex="1" parent="u8hdXsH2bOox4BELGcvJ-11">
          <mxGeometry x="574" y="60" width="170" height="60" as="geometry" />
        </mxCell>
        <mxCell id="u8hdXsH2bOox4BELGcvJ-18" value="&lt;font style=&quot;font-size: 20px;&quot;&gt;Evaluate&lt;/font&gt;" style="rounded=0;whiteSpace=wrap;html=1;" vertex="1" parent="1">
          <mxGeometry x="910" y="460" width="170" height="60" as="geometry" />
        </mxCell>
        <mxCell id="u8hdXsH2bOox4BELGcvJ-16" style="edgeStyle=orthogonalEdgeStyle;rounded=0;orthogonalLoop=1;jettySize=auto;html=1;entryX=0.5;entryY=0;entryDx=0;entryDy=0;" edge="1" parent="1" source="u8hdXsH2bOox4BELGcvJ-17" target="u8hdXsH2bOox4BELGcvJ-18">
          <mxGeometry relative="1" as="geometry" />
        </mxCell>
      </root>
    </mxGraphModel>
  </diagram>
</mxfile>
